# File created by Blade
# Date/Time:  Wed Jan 21 15:55:51 2015
# Frame Rate: 120.000 fps
#------------------------------------------------------
:FULLY-SPECIFIED
:DEGREES
1051
root 10.711753 30.768591 -12.239673 -166.644843 14.134907 -175.736527
Spine 35.092859 7.621148 9.116198
Head 3.844351 1.951804 -8.224891
LeftShoulder 7.402510 -25.859287 -5.148117
LeftArm 7.768494 18.259028 -72.834102
LeftForeArm -9.419931 -0.000000 13.327148
LeftHand -1.384046 0.000000 7.708676
LeftHandThumb1 -26.253704 0.000000 33.147579
RightShoulder 4.010679 -0.099735 -2.206875
RightArm 35.105185 1.002255 66.643066
RightForeArm -32.458823 -0.000000 49.924021
RightHand -5.727233 -0.000000 -4.659070
RightHandThumb1 -24.326973 -0.000000 -32.862282
LeftUpLeg -17.798502 26.398620 28.936300
LeftLeg 19.157734 -0.000000 -0.000000
LeftFoot -21.696103 22.345816 -25.295662
LeftToeBase 31.071726 -0.000000 -0.000000
RightUpLeg -47.971366 -25.519339 -3.289142
RightLeg 32.462850 -0.000000 -0.000000
RightFoot -19.833728 -14.997556 26.861137
RightToeBase 16.587050 -0.000000 -0.000000
1052
root 10.630058 30.753761 -12.289994 -166.864195 14.078872 -175.680914
Spine 34.792589 7.880764 8.886656
Head 3.872570 1.683622 -7.736455
LeftShoulder 7.503918 -25.908232 -5.113732
LeftArm 7.520422 17.905967 -72.837644
LeftForeArm -9.122224 -0.000000 12.941002
LeftHand -1.371784 0.000000 7.247397
LeftHandThumb1 -26.253704 0.000000 33.147579
RightShoulder 3.853858 -0.240015 -1.743394
RightArm 34.739501 0.199575 66.963345
RightForeArm -32.720114 -0.000000 50.155614
RightHand -5.662090 -0.000000 -4.219801
RightHandThumb1 -24.326973 -0.000000 -32.862282
LeftUpLeg -18.047821 26.182986 29.015100
LeftLeg 20.167393 -0.000000 -0.000000
LeftFoot -22.208798 22.144116 -25.399876
LeftToeBase 30.854241 -0.000000 -0.000000
RightUpLeg -47.486894 -25.531988 -3.558614
RightLeg 32.184137 -0.000000 -0.000000
RightFoot -19.007578 -14.946130 27.061807
RightToeBase 16.879832 -0.000000 -0.000000
1053
root 10.551389 30.731623 -12.334169 -167.036909 14.090191 -175.650428
Spine 34.445239 8.153203 8.583273
Head 3.910322 1.479718 -7.277580
LeftShoulder 7.558451 -25.776586 -5.042617
LeftArm 7.439581 17.824051 -72.671604
LeftForeArm -9.061474 -0.000000 12.656923
LeftHand -1.386864 -0.000000 6.967857
LeftHandThumb1 -26.253704 0.000000 33.147579
RightShoulder 3.761388 -0.542552 -1.290217
RightArm 34.576308 -0.567704 67.306780
RightForeArm -33.342115 -0.000000 50.239565
RightHand -5.691895 -0.000000 -4.099699
RightHandThumb1 -24.326973 -0.000000 -32.862282
LeftUpLeg -18.337017 25.989098 29.063496
LeftLeg 21.224199 -0.000000 -0.000000
LeftFoot -22.807138 21.954988 -25.625848
LeftToeBase 30.712618 -0.000000 -0.000000
RightUpLeg -47.114337 -25.471088 -3.852935
RightLeg 31.961469 -0.000000 -0.000000
RightFoot -18.040505 -14.843453 27.308306
RightToeBase 16.956635 -0.000000 -0.000000
1054
root 10.474905 30.701210 -12.377285 -167.152306 14.064605 -175.646729
Spine 34.014790 8.368135 8.230760
Head 3.946000 1.319166 -6.821443
LeftShoulder 7.513123 -25.748929 -4.978037
LeftArm 7.316853 17.981753 -72.490818
LeftForeArm -9.107643 -0.000000 12.365675
LeftHand -1.420487 0.000000 6.670916
LeftHandThumb1 -26.253704 0.000000 33.147579
RightShoulder 3.630022 -0.812262 -0.782256
RightArm 34.403390 -1.365675 67.626599
RightForeArm -33.839223 0.000000 50.276363
RightHand -5.692949 -0.000000 -3.686613
RightHandThumb1 -24.326973 -0.000000 -32.862282
LeftUpLeg -18.749322 25.861267 29.056422
LeftLeg 22.328573 -0.000000 -0.000000
LeftFoot -23.410755 21.699005 -25.851834
LeftToeBase 30.841120 -0.000000 -0.000000
RightUpLeg -46.847003 -25.444335 -4.137922
RightLeg 31.807236 -0.000000 -0.000000
RightFoot -17.175318 -14.754230 27.451857
RightToeBase 17.572230 -0.000000 -0.000000
1055
root 10.402444 30.664715 -12.419970 -167.294254 14.075226 -175.625331
Spine 33.623465 8.498667 7.843235
Head 3.935448 1.290755 -6.411243
LeftShoulder 7.333999 -25.723383 -4.875389
LeftArm 7.272405 18.091944 -72.283221
LeftForeArm -9.137290 -0.000000 11.994934
LeftHand -1.453582 -0.000000 6.227372
LeftHandThumb1 -26.253704 0.000000 33.147579
RightShoulder 3.702649 -1.041267 -0.329362
RightArm 34.133265 -2.055762 68.002846
RightForeArm -34.407312 -0.000000 50.344453
RightHand -5.732924 -0.000000 -3.082601
RightHandThumb1 -24.326973 -0.000000 -32.862282
LeftUpLeg -19.144655 25.849744 29.072236
LeftLeg 23.475546 -0.000000 -0.000000
LeftFoot -23.943493 21.434845 -25.971950
LeftToeBase 30.778655 -0.000000 -0.000000
RightUpLeg -46.594856 -25.385646 -4.415253
RightLeg 31.732946 -0.000000 -0.000000
RightFoot -16.373019 -14.364412 27.716421
RightToeBase 18.370973 -0.000000 -0.000000
1056
root 10.322644 30.619579 -12.463198 -167.425203 13.942461 -175.665381
Spine 33.197281 8.581755 7.557433
Head 4.001604 1.093375 -6.080482
LeftShoulder 7.399265 -25.769053 -4.890033
LeftArm 7.069278 18.159477 -72.140418
LeftForeArm -9.103060 -0.000000 11.670653
LeftHand -1.458146 -0.000000 5.854230
LeftHandThumb1 -26.253704 0.000000 33.147579
RightShoulder 3.585489 -1.300642 0.100454
RightArm 33.948540 -2.717149 68.377416
RightForeArm -34.958284 -0.000000 50.192361
RightHand -5.604153 -0.000000 -3.008133
RightHandThumb1 -24.326973 -0.000000 -32.862282
LeftUpLeg -19.674230 25.616531 29.012038
LeftLeg 24.651253 -0.000000 -0.000000
LeftFoot -24.512801 21.279236 -25.974336
LeftToeBase 30.824907 -0.000000 -0.000000
RightUpLeg -46.466009 -25.615199 -4.653734
RightLeg 31.834721 -0.000000 -0.000000
RightFoot -15.684103 -13.584310 27.906296
RightToeBase 19.190146 -0.000000 -0.000000
